<svg xmlns="http://www.w3.org/2000/svg" viewBox="0 0 512 512">
  <defs>
    <linearGradient id="bg" x1="0" y1="0" x2="1" y2="1">
      <stop offset="0%" stop-color="#0f766e"/>
      <stop offset="100%" stop-color="#06b6d4"/>
    </linearGradient>
    <linearGradient id="accent" x1="0" y1="0" x2="1" y2="1">
      <stop offset="0%" stop-color="#fb923c"/>
      <stop offset="100%" stop-color="#ef4444"/>
    </linearGradient>
  </defs>
  <rect width="512" height="512" rx="126" fill="url(#bg)"/>
  <rect x="92" y="90" width="328" height="332" rx="52" fill="#ffffff" opacity="0.95"/>
  <path d="M170 164h122l52 52v132c0 15.46-12.54 28-28 28H170c-15.46 0-28-12.54-28-28V192c0-15.46 12.54-28 28-28Z" fill="#0f172a" opacity="0.08"/>
  <path d="M184 164h118l54 54v122c0 17.67-14.33 32-32 32H184c-17.67 0-32-14.33-32-32V196c0-17.67 14.33-32 32-32Z" fill="#ffffff"/>
  <path d="M300 164v52c0 11.05 8.95 20 20 20h52" fill="none" stroke="#0f766e" stroke-width="24" stroke-linecap="round" stroke-linejoin="round"/>
  <path d="M208 258h104M208 308h104" fill="none" stroke="#0f766e" stroke-width="24" stroke-linecap="round"/>
  <circle cx="262" cy="362" r="58" fill="url(#accent)"/>
  <path d="m236 362 18 18 34-40" fill="none" stroke="#ffffff" stroke-width="24" stroke-linecap="round" stroke-linejoin="round"/>
</svg>
